{"title":"The Red Baron-720p MP4 AAC x264 BRRip 2008-CC","uid":8265042,"size":3142506128,"categoryP":"video","categoryS":"hd___movies","magnet":"?xt=urn:btih:3d1cc555e7e5dd48a64470b9b4c4ec5a74907bde&amp;dn=The+Red+Baron-720p+MP4+AAC+x264+BRRip+2008-CC&amp;tr=udp%3A%2F%2Ftracker.openbittorrent.com%3A80&amp;tr=udp%3A%2F%2Fopen.demonii.com%3A1337&amp;tr=udp%3A%2F%2Ftracker.coppersurfer.tk%3A6969&amp;tr=udp%3A%2F%2Fexodus.desync.com%3A6969","seeders":3,"leechers":4,"uploader":"Caveman44","files":-1,"time":1363469528,"description":"Aka Der rote Baron\n &lt;a href=&quot;\nhttp://www.imdb.com/title/tt0365675/&quot; rel=&quot;nofollow&quot; target=&quot;_NEW&quot;&gt;\nhttp://www.imdb.com/title/tt0365675/&lt;/a&gt; \n\nSource: The.Red.Baron.2008.720p.BluRay.x264-WiKi Thanks!\n\nSubs: Danish, Dutch, French, Romanian, Spanish, Swedish and Turkish.\n\nSample and Screens included.\n\nGeneral\nComplete name                            : The Red Baron-720p MP4 AAC x264 BRRip 2008-CC.mp4\nFormat                                   : MPEG-4\nFormat profile                           : Base Media\nCodec ID                                 : isom\nFile size                                : 2.89 GiB\nDuration                                 : 1h 45mn\nOverall bit rate mode                    : Variable\nOverall bit rate                         : 3 909 Kbps\nEncoded date                             : UTC 2013-02-26 20:32:09\n \nVideo\nID                                       : 1\nFormat                                   : AVC\nFormat/Info                              : Advanced Video Codec\nFormat profile                           : &lt;a class=&quot;__cf_email__&quot; href=&quot;/cdn-cgi/l/email-protection&quot; data-cfemail=&quot;fbb3929c93bbb7cfd5ca&quot;&gt;[email&amp;#160;protected]&lt;/a&gt;&lt;script cf-hash='f9e31' type=&quot;text/javascript&quot;&gt;\n/* &lt;![CDATA[ */!function(){try{var t=&quot;currentScript&quot;in document?document.currentScript:function(){for(var t=document.getElementsByTagName(&quot;script&quot;),e=t.length;e--;)if(t[e].getAttribute(&quot;cf-hash&quot;))return t[e]}();if(t&amp;&amp;t.previousSibling){var e,r,n,i,c=t.previousSibling,a=c.getAttribute(&quot;data-cfemail&quot;);if(a){for(e=&quot;&quot;,r=parseInt(a.substr(0,2),16),n=2;a.length-n;n+=2)i=parseInt(a.substr(n,2),16)^r,e+=String.fromCharCode(i);e=document.createTextNode(e),c.parentNode.replaceChild(e,c)}}}catch(u){}}();/* ]]&gt; */&lt;/script&gt;\nFormat settings, CABAC                   : Yes\nFormat settings, ReFrames                : 5 frames\nCodec ID                                 : avc1\nCodec ID/Info                            : Advanced Video Coding\nDuration                                 : 1h 45mn\nSource duration                          : 1h 45mn\nBit rate                                 : 3 559 Kbps\nMaximum bit rate                         : 30.8 Mbps\nWidth                                    : 1 280 pixels\nHeight                                   : 544 pixels\nDisplay aspect ratio                     : 2.35:1\nFrame rate mode                          : Variable\nFrame rate                               : 23.976 fps\nMinimum frame rate                       : 15.873 fps\nMaximum frame rate                       : 24.390 fps\nColor space                              : YUV\nChroma subsampling                       : 4:2:0\nBit depth                                : 8 bits\nScan type                                : Progressive\nBits/(Pixel*Frame)                       : 0.213\nStream size                              : 2.60 GiB (90%)\nSource stream size                       : 2.60 GiB (90%)\nWriting library                          : x264 core 112\n\nAudio\nID                                       : 2\nFormat                                   : AAC\nFormat/Info                              : Advanced Audio Codec\nFormat profile                           : LC\nCodec ID                                 : 40\nDuration                                 : 1h 45mn\nBit rate mode                            : Variable\nBit rate                                 : 384 Kbps\nMaximum bit rate                         : 538 Kbps\nChannel(s)                               : 6 channels\nChannel positions                        : Front: L C R, Side: L R, LFE\nSampling rate                            : 48.0 KHz\nCompression mode                         : Lossy\nDelay relative to video                  : 83ms\nStream size                              : 291 MiB (10%)\nLanguage                                 : English\n\nEnjoy...\n\nRequested by SammyR\n\nComing soon: Willow, Army of Shadows, Tetro, The Insider and more.","torrent":{"xt":"urn:btih:3d1cc555e7e5dd48a64470b9b4c4ec5a74907bde","amp;dn":"The+Red+Baron-720p+MP4+AAC+x264+BRRip+2008-CC","amp;tr":["udp%3A%2F%2Ftracker.openbittorrent.com%3A80","udp%3A%2F%2Fopen.demonii.com%3A1337","udp%3A%2F%2Ftracker.coppersurfer.tk%3A6969","udp%3A%2F%2Fexodus.desync.com%3A6969"],"infoHash":"3d1cc555e7e5dd48a64470b9b4c4ec5a74907bde","infoHashBuffer":{"type":"Buffer","data":[61,28,197,85,231,229,221,72,166,68,112,185,180,196,236,90,116,144,123,222]},"announce":[],"urlList":[]}}